<svg width="119" height="28" viewBox="0 0 119 28" fill="none" xmlns="http://www.w3.org/2000/svg">
<rect x="0.5" y="0.5" width="117.636" height="27" rx="7.5" fill="url(#paint0_linear_1843_5199)"/>
<rect x="0.5" y="0.5" width="117.636" height="27" rx="7.5" stroke="url(#paint1_linear_1843_5199)"/>
<path d="M11.68 20.5V6.4H13.42L18.64 16.14L23.84 6.4H25.54V20.5H23.68V10.16L19.26 18.34H18L13.56 10.2V20.5H11.68ZM32.8866 20.68C31.8999 20.68 31.0466 20.4733 30.3266 20.06C29.6066 19.6467 29.0466 19.0667 28.6466 18.32C28.2599 17.56 28.0666 16.66 28.0666 15.62C28.0666 14.58 28.2599 13.6867 28.6466 12.94C29.0466 12.18 29.6066 11.5933 30.3266 11.18C31.0466 10.7667 31.8999 10.56 32.8866 10.56C33.8466 10.56 34.6866 10.7667 35.4066 11.18C36.1266 11.5933 36.6866 12.18 37.0866 12.94C37.4866 13.6867 37.6866 14.58 37.6866 15.62C37.6866 16.66 37.4866 17.56 37.0866 18.32C36.6866 19.0667 36.1266 19.6467 35.4066 20.06C34.6866 20.4733 33.8466 20.68 32.8866 20.68ZM32.8866 19.12C33.7132 19.12 34.3799 18.82 34.8866 18.22C35.3932 17.62 35.6466 16.7533 35.6466 15.62C35.6466 14.4867 35.3932 13.6267 34.8866 13.04C34.3799 12.44 33.7132 12.14 32.8866 12.14C32.0466 12.14 31.3732 12.44 30.8666 13.04C30.3599 13.6267 30.1066 14.4867 30.1066 15.62C30.1066 16.7533 30.3599 17.62 30.8666 18.22C31.3732 18.82 32.0466 19.12 32.8866 19.12ZM39.9552 20.5V10.74H41.9152V12.48C42.4218 11.32 43.4752 10.6733 45.0752 10.54L45.7352 10.5L45.8752 12.22L44.6552 12.34C42.8818 12.5133 41.9952 13.4267 41.9952 15.08V20.5H39.9552ZM51.8594 20.68C50.2594 20.68 48.9994 20.2333 48.0794 19.34C47.1594 18.4333 46.6994 17.2 46.6994 15.64C46.6994 14.64 46.8994 13.76 47.2994 13C47.7127 12.2267 48.2794 11.6267 48.9994 11.2C49.7194 10.7733 50.546 10.56 51.4794 10.56C52.826 10.56 53.886 10.9933 54.6594 11.86C55.4327 12.7133 55.8194 13.8933 55.8194 15.4V16.08H48.6594C48.806 18.1067 49.8794 19.12 51.8794 19.12C52.4394 19.12 52.986 19.0333 53.5194 18.86C54.066 18.6867 54.5794 18.4 55.0594 18L55.6594 19.4C55.2194 19.8 54.6527 20.1133 53.9594 20.34C53.266 20.5667 52.566 20.68 51.8594 20.68ZM51.5594 11.98C50.7194 11.98 50.0527 12.24 49.5594 12.76C49.066 13.28 48.766 13.9733 48.6594 14.84H54.1194C54.0794 13.9333 53.8394 13.2333 53.3994 12.74C52.9594 12.2333 52.346 11.98 51.5594 11.98Z" fill="#CBD0D8"/>
<path d="M79 18L82 15L82.2929 14.7071C82.6834 14.3166 82.6834 13.6834 82.2929 13.2929L79 10" stroke="#B0B7C4" stroke-width="1.5" stroke-linecap="round"/>
<path d="M79 14L68 14" stroke="#B0B7C4" stroke-width="1.5" stroke-linecap="round"/>
<defs>
<linearGradient id="paint0_linear_1843_5199" x1="59.3179" y1="0" x2="59.3179" y2="28" gradientUnits="userSpaceOnUse">
<stop stop-color="#333D51"/>
<stop offset="1" stop-color="#000E26"/>
</linearGradient>
<linearGradient id="paint1_linear_1843_5199" x1="118.636" y1="14.4" x2="1.22615e-06" y2="14.4" gradientUnits="userSpaceOnUse">
<stop stop-color="#FFFAE7"/>
<stop offset="1" stop-color="#CCB04C"/>
</linearGradient>
</defs>
</svg>
