<svg width="32" height="26" viewBox="0 0 32 26" fill="none" xmlns="http://www.w3.org/2000/svg">
<path d="M5.12808 15.4545C5.59015 14.5395 5.4487 13.4145 4.77445 12.6646C3.77015 11.5446 3.23264 10.1996 3.23264 8.79969C3.23264 5.6248 6.24083 2.39992 10.7767 2.39992C15.3126 2.39992 18.3207 5.6248 18.3207 8.79969C18.3207 11.9746 15.3126 15.1995 10.7767 15.1995C10.159 15.1995 9.56021 15.1345 8.99441 15.0195C8.50404 14.9195 7.99482 14.9895 7.54689 15.2295C7.35358 15.3345 7.15554 15.4345 6.9528 15.5295C6.19839 15.8894 5.40155 16.2044 4.6 16.4294C4.73202 16.1994 4.85461 15.9744 4.97248 15.7495C5.02435 15.6545 5.07621 15.5545 5.12336 15.4545H5.12808ZM0.969421 8.79969C0.969421 10.8896 1.78041 12.8046 3.13362 14.3145C3.09119 14.3995 3.04403 14.4895 3.0016 14.5695C2.51595 15.4895 1.95015 16.3944 1.2759 17.1744C0.964705 17.5244 0.88455 18.0344 1.05901 18.4694C1.24289 18.9143 1.64839 19.1993 2.10103 19.1993C4.12849 19.1993 6.17953 18.5344 7.88637 17.7144C8.1127 17.6044 8.33902 17.4894 8.55591 17.3744C9.26788 17.5244 10.0129 17.5994 10.7767 17.5994C16.1943 17.5994 20.584 13.6595 20.584 8.79969C20.584 3.93986 16.1943 0 10.7767 0C5.35912 0 0.969421 3.93986 0.969421 8.79969ZM21.3384 23.9992C22.1022 23.9992 22.8425 23.9192 23.5591 23.7742C23.776 23.8892 24.0024 24.0042 24.2287 24.1142C25.9355 24.9341 27.9866 25.5991 30.014 25.5991C30.4667 25.5991 30.8722 25.3141 31.0513 24.8741C31.2305 24.4341 31.1456 23.9242 30.8344 23.5792C30.1649 22.7992 29.5991 21.8942 29.1087 20.9743C29.0663 20.8893 29.0192 20.8043 28.9767 20.7193C30.3346 19.2043 31.1456 17.2894 31.1456 15.1995C31.1456 10.4796 27.0011 6.62477 21.8004 6.40978C21.9938 7.16975 22.0928 7.96972 22.0928 8.79969V8.82969C26.2043 9.16468 28.8824 12.2046 28.8824 15.1995C28.8824 16.5994 28.3449 17.9444 27.3406 19.0593C26.6663 19.8093 26.5249 20.9393 26.987 21.8492C27.0388 21.9492 27.0907 22.0492 27.1379 22.1442C27.2557 22.3692 27.383 22.5942 27.5103 22.8242C26.7088 22.5992 25.9119 22.2892 25.1575 21.9242C24.9548 21.8292 24.7568 21.7292 24.5634 21.6242C24.1155 21.3843 23.6063 21.3143 23.1159 21.4143C22.5454 21.5342 21.9513 21.5942 21.3336 21.5942C18.4245 21.5942 16.1471 20.2693 14.8835 18.4794C14.1291 18.7493 13.337 18.9493 12.526 19.0693C14.1244 21.9892 17.472 23.9992 21.3384 23.9992Z" fill="#E5E5E5"/>
</svg>
