<svg width="136" height="136" viewBox="0 0 136 136" fill="none" xmlns="http://www.w3.org/2000/svg">
<path d="M101.247 33.3745C120.3 51.8067 120.804 82.1944 102.371 101.247C83.9393 120.3 53.5515 120.804 34.4985 102.372C15.4455 83.9393 14.9422 53.5516 33.3744 34.4986C51.8066 15.4456 82.1944 14.9423 101.247 33.3745Z" stroke="url(#paint0_linear_9_4750)"/>
<path d="M63.216 83.968C63.984 85.952 65.088 86.976 66.528 87.04V88C65.248 87.904 63.536 87.856 61.392 87.856C58.64 87.856 56.592 87.904 55.248 88V87.04C56.464 86.976 57.328 86.832 57.84 86.608C58.384 86.352 58.656 85.904 58.656 85.264C58.656 84.72 58.464 83.968 58.08 83.008L55.152 75.136H43.536L41.568 80.224C40.928 81.952 40.608 83.264 40.608 84.16C40.608 85.152 40.944 85.872 41.616 86.32C42.32 86.768 43.376 87.008 44.784 87.04V88C42.96 87.904 41.12 87.856 39.264 87.856C37.824 87.856 36.624 87.904 35.664 88V87.04C37.264 86.656 38.528 85.264 39.456 82.864L50.736 53.776H51.504L63.216 83.968ZM54.768 74.176L49.392 59.824L43.92 74.176H54.768ZM83.5736 53.344C85.4936 53.344 87.1256 53.616 88.4696 54.16C89.8136 54.704 91.1256 55.472 92.4056 56.464C92.7576 56.752 93.0616 56.896 93.3176 56.896C93.9576 56.896 94.3736 55.936 94.5656 54.016H95.6696C95.5416 56.096 95.4776 59.776 95.4776 65.056H94.3736C94.0216 62.976 93.7016 61.488 93.4136 60.592C93.1256 59.664 92.6456 58.784 91.9736 57.952C91.0136 56.704 89.7816 55.776 88.2776 55.168C86.8056 54.528 85.2056 54.208 83.4776 54.208C81.3976 54.208 79.5736 54.896 78.0056 56.272C76.4696 57.648 75.2696 59.616 74.4056 62.176C73.5416 64.704 73.1096 67.68 73.1096 71.104C73.1096 74.592 73.5736 77.584 74.5016 80.08C75.4296 82.576 76.7096 84.48 78.3416 85.792C80.0056 87.072 81.8776 87.712 83.9576 87.712C85.5576 87.712 87.1096 87.408 88.6136 86.8C90.1176 86.192 91.3016 85.28 92.1656 84.064C92.8056 83.168 93.2696 82.208 93.5576 81.184C93.8456 80.16 94.1176 78.592 94.3736 76.48H95.4776C95.4776 81.984 95.5416 85.824 95.6696 88H94.5656C94.4696 86.976 94.3256 86.256 94.1336 85.84C93.9736 85.392 93.7336 85.168 93.4136 85.168C93.1576 85.168 92.8216 85.296 92.4056 85.552C90.9656 86.576 89.5896 87.36 88.2776 87.904C86.9656 88.416 85.3816 88.672 83.5256 88.672C80.4856 88.672 77.8136 87.984 75.5096 86.608C73.2376 85.232 71.4616 83.248 70.1816 80.656C68.9336 78.032 68.3096 74.912 68.3096 71.296C68.3096 67.776 68.9496 64.656 70.2296 61.936C71.5416 59.216 73.3496 57.104 75.6536 55.6C77.9896 54.096 80.6296 53.344 83.5736 53.344Z" fill="#E5E5E5"/>
<defs>
<linearGradient id="paint0_linear_9_4750" x1="33.3744" y1="34.4986" x2="102.371" y2="101.247" gradientUnits="userSpaceOnUse">
<stop stop-color="#E757FF"/>
<stop offset="1" stop-color="#25F7F8"/>
</linearGradient>
</defs>
</svg>
