<svg width="32" height="37" viewBox="0 0 32 37" fill="none" xmlns="http://www.w3.org/2000/svg">
<path d="M15.9858 0C14.7936 0 13.8303 1.02141 13.8303 2.28568V3.65709C8.91312 4.71422 5.20837 9.32844 5.20837 14.8569V16.1998C5.20837 19.5569 4.04306 22.7997 1.94146 25.3139L1.443 25.9068C0.877185 26.5782 0.742466 27.5425 1.086 28.3639C1.42953 29.1853 2.20416 29.7139 3.05288 29.7139H28.9188C29.7675 29.7139 30.5354 29.1853 30.8856 28.3639C31.2359 27.5425 31.0945 26.5782 30.5286 25.9068L30.0302 25.3139C27.9286 22.7997 26.7633 19.564 26.7633 16.1998V14.8569C26.7633 9.32844 23.0585 4.71422 18.1413 3.65709V2.28568C18.1413 1.02141 17.1781 0 15.9858 0ZM19.0372 35.2352C19.8455 34.3781 20.2968 33.2138 20.2968 31.9996H15.9858H11.6748C11.6748 33.2138 12.1261 34.3781 12.9345 35.2352C13.7428 36.0924 14.8407 36.5709 15.9858 36.5709C17.1309 36.5709 18.2289 36.0924 19.0372 35.2352Z" fill="#E5E5E5"/>
</svg>
