<svg width="98" height="103" viewBox="0 0 98 103" fill="none" xmlns="http://www.w3.org/2000/svg">
<path d="M97.25 51C97.25 77.6477 75.6477 99.25 49 99.25C22.3523 99.25 0.75 77.6477 0.75 51C0.75 24.3523 22.3523 2.75 49 2.75C75.6477 2.75 97.25 24.3523 97.25 51Z" stroke="url(#paint0_linear_2075_3722)" stroke-width="1.5"/>
<line x1="2" y1="50.75" x2="22" y2="50.75" stroke="#CBD0D8" stroke-width="0.5"/>
<line x1="76" y1="50.75" x2="96" y2="50.75" stroke="#CBD0D8" stroke-width="0.5"/>
<line x1="48.75" y1="21" x2="48.75" y2="4" stroke="#CBD0D8" stroke-width="0.5"/>
<line x1="77.8187" y1="21.4538" x2="81.2615" y2="17.828" stroke="#CBD0D8" stroke-width="0.5"/>
<line x1="15.8187" y1="83.8279" x2="19.2615" y2="80.202" stroke="#CBD0D8" stroke-width="0.5"/>
<line x1="16.1768" y1="17.8232" x2="19.7123" y2="21.3588" stroke="#CBD0D8" stroke-width="0.5"/>
<line x1="76.1768" y1="82.8232" x2="79.7123" y2="86.3588" stroke="#CBD0D8" stroke-width="0.5"/>
<line x1="48.75" y1="98" x2="48.75" y2="81" stroke="#CBD0D8" stroke-width="0.5"/>
<path d="M47.1162 35.3729L47.0562 35.373C46.5803 37.2541 45.8058 39.7158 44.7325 42.7582L33.8799 73.2023L38.7412 73.7916C38.9026 74.3912 38.9042 75.1312 38.7462 76.0115C36.5458 75.8564 34.4256 75.7811 32.3856 75.7856C30.6256 75.7895 28.4658 75.8543 25.9061 75.98C25.6645 75.2605 25.6629 74.5405 25.9013 73.82L29.8597 73.0912C30.4975 72.1298 31.2936 70.348 32.2478 67.7459L47.636 26.2517L49.736 26.2471L67.5998 73.1276L72.4612 73.7169C72.6225 74.3165 72.6241 75.0565 72.4661 75.9369C70.2657 75.7817 67.4256 75.708 63.9456 75.7157C60.8256 75.7227 57.9657 75.789 55.366 75.9147C55.1244 75.1953 55.1228 74.4753 55.3612 73.7547L60.3396 73.0237L49.2925 42.7481C48.4471 40.31 47.7217 37.8516 47.1162 35.3729Z" fill="#D3AC2B" fill-opacity="0.760784"/>
<line x1="39" y1="56" x2="49" y2="56" stroke="#D3AC2B" stroke-width="2"/>
<path d="M48.816 51.928C50.144 51.928 51.296 52.208 52.272 52.768L51.936 54.424L51.72 54.496C51.32 54.16 50.856 53.896 50.328 53.704C49.8 53.512 49.232 53.416 48.624 53.416C47.44 53.416 46.536 53.8 45.912 54.568C45.288 55.32 44.976 56.448 44.976 57.952C44.976 59.472 45.288 60.632 45.912 61.432C46.536 62.232 47.44 62.632 48.624 62.632C49.2 62.632 49.776 62.536 50.352 62.344C50.944 62.136 51.472 61.864 51.936 61.528L52.152 61.6L51.984 63.256C50.896 63.848 49.752 64.144 48.552 64.144C46.792 64.144 45.44 63.624 44.496 62.584C43.552 61.528 43.08 60.032 43.08 58.096C43.08 56.128 43.576 54.608 44.568 53.536C45.576 52.464 46.992 51.928 48.816 51.928Z" fill="#FFFDF0"/>
<defs>
<linearGradient id="paint0_linear_2075_3722" x1="49" y1="2" x2="49" y2="100" gradientUnits="userSpaceOnUse">
<stop stop-color="#CCB04C"/>
<stop offset="1" stop-color="#F1E5BD"/>
</linearGradient>
</defs>
</svg>
