<svg width="22" height="22" viewBox="0 0 22 22" fill="none" xmlns="http://www.w3.org/2000/svg">
<path d="M19.6622 6C20.513 7.47087 21 9.17856 21 11C21 16.5228 16.5228 21 11 21C9.24348 21 7.59274 20.5471 6.15817 19.7518C5.89316 19.6048 5.57856 19.5681 5.29285 19.6691L2.77026 20.5605C1.81913 20.8966 0.902925 19.9804 1.23902 19.0292L2.1673 16.4022C2.26437 16.1275 2.23426 15.8254 2.10104 15.5662C1.39724 14.1974 1 12.6451 1 11C1 5.47715 5.47715 1 11 1C13.2516 1 15.3295 1.74418 17.001 3" stroke="#CBD0D8" stroke-width="1.5" stroke-linecap="round"/>
<circle cx="6.0498" cy="11.0498" r="1.25" fill="#CBD0D8"/>
<circle cx="11.0498" cy="11.0498" r="1.25" fill="#CBD0D8"/>
<circle cx="16.0498" cy="11.0498" r="1.25" fill="#CBD0D8"/>
</svg>
