<svg width="24" height="24" viewBox="0 0 24 24" fill="none" xmlns="http://www.w3.org/2000/svg">
<path d="M17.4 2.5H6.6C4.61177 2.5 3 4.11177 3 6.1V17.9C3 19.8882 4.61177 21.5 6.6 21.5H17.4C19.3882 21.5 21 19.8882 21 17.9V6.1C21 4.11177 19.3882 2.5 17.4 2.5Z" stroke="#CBD0D8" stroke-width="2" stroke-miterlimit="10"/>
<path d="M12 15.5C13.933 15.5 15.5 13.933 15.5 12C15.5 10.067 13.933 8.5 12 8.5C10.067 8.5 8.5 10.067 8.5 12C8.5 13.933 10.067 15.5 12 15.5Z" stroke="#CBD0D8" stroke-width="2" stroke-miterlimit="10"/>
<path d="M17.1109 5.91802C17.226 5.8411 17.3614 5.80005 17.4998 5.80005C17.6855 5.80005 17.8635 5.8738 17.9948 6.00508C18.1261 6.13635 18.1998 6.3144 18.1998 6.50005C18.1998 6.6385 18.1587 6.77383 18.0818 6.88895C18.0049 7.00406 17.8956 7.09378 17.7677 7.14677C17.6398 7.19975 17.499 7.21361 17.3632 7.1866C17.2275 7.15959 17.1027 7.09292 17.0048 6.99502C16.9069 6.89713 16.8403 6.7724 16.8133 6.63661C16.7862 6.50083 16.8001 6.36008 16.8531 6.23217C16.9061 6.10426 16.9958 5.99494 17.1109 5.91802Z" stroke="#CBD0D8" stroke-width="1.6"/>
</svg>
